<?xml version="1.0" encoding="utf-8"?><svg version="1.1" id="Layer_1" xmlns="http://www.w3.org/2000/svg" xmlns:xlink="http://www.w3.org/1999/xlink" x="0px" y="0px" viewBox="0 0 122.88 119.34" style="enable-background:new 0 0 122.88 119.34" xml:space="preserve"><style type="text/css"><![CDATA[
	.st0{fill:#2E9FFF;}
]]></style><g><path class="st0" d="M63.68,119.34c-14.6,0-27.95-5.34-38.28-14.16L0,108.65l9.81-24.22C6.4,76.88,4.48,68.51,4.48,59.67 C4.48,26.72,30.98,0,63.68,0c32.7,0,59.2,26.72,59.2,59.67C122.88,92.63,96.38,119.34,63.68,119.34L63.68,119.34z M96.01,59.5 v-0.17c0-17.22-12.14-29.5-33.08-29.5H40.31v59.67h22.28C83.69,89.51,96.01,76.72,96.01,59.5L96.01,59.5L96.01,59.5z M63.18,74.85 h-6.61V44.5h6.61c9.71,0,16.16,5.54,16.16,15.09v0.17C79.34,69.39,72.89,74.85,63.18,74.85L63.18,74.85z"/></g></svg>