<svg xmlns="http://www.w3.org/2000/svg" viewBox="0 0 3333 3333" shape-rendering="geometricPrecision" text-rendering="geometricPrecision" image-rendering="optimizeQuality" fill-rule="evenodd" clip-rule="evenodd"><path d="M1667 0c920 0 1667 746 1667 1667 0 920-746 1667-1667 1667C747 3334 0 2588 0 1667 0 747 746 0 1667 0zm532 1492c86-429-81-787-533-791-323-2-617 208-537 761 10 69-23 61-75 49-43-9-87-19-130-28-21 4-37 12-48 23-62 66 63 117 110 135 62 23 130 45 121 118-3 29-13 57-24 86-59 142-215 275-363 317-77 22-116 31 1 95 53 29 119 45 205 57 12 227 98 81 284 119 23 5 48 8 75 20 48 21 96 62 151 94 166 96 316 102 478-12 94-66 183-131 350-111 117 15 109 51 149-114 147-26 279-54 271-135-192-41-314-141-416-305-40-65-91-160 15-205 28-12 65-18 108-34 38-13 72-37 80-54 21-48-14-90-59-94-86-6-127 50-179 33-12-4-23-11-37-23h1z"/></svg>