<svg xmlns="http://www.w3.org/2000/svg" viewBox="0 0 333333 199007" shape-rendering="geometricPrecision" text-rendering="geometricPrecision" image-rendering="optimizeQuality" fill-rule="evenodd" clip-rule="evenodd"><path d="M31366 0h270600c8631 0 16474 3528 22156 9210 5683 5683 9211 13526 9211 22156v136275c0 8629-3529 16472-9211 22155-5683 5682-13526 9211-22155 9211H31367c-8629 0-16473-3528-22156-9211C3529 184114 1 176272 1 167641V31366c0-8631 3528-16474 9210-22156S22737 0 31368 0zm270600 10811H31366c-5647 0-10785 2315-14513 6043s-6043 8866-6043 14513v136275c0 5646 2315 10784 6043 14512 3729 3729 8867 6044 14513 6044h270600c5645 0 10783-2315 14512-6044 3728-3729 6044-8867 6044-14511V31368c0-5645-2315-10784-6043-14513-3728-3728-8867-6043-14513-6043z" fill="gray" fill-rule="nonzero"/><path d="M88860 131948c0 2759 1974 3082 3728 3082 7743 0 10285-5841 10285-11181 0-6702-4300-11537-11216-11537-1472 0-2149 105-2797 143v19494zm84795-23133c18530 91 35442-15107 35442-33598 0-20217-16913-34192-35443-34187h-15947c-18750-6-34184 13973-34184 34187 0 18494 15435 33689 34184 33598h15948zm-8833-15594V56508c7380 2830 12618 9976 12632 18356-13 8380-5252 15522-12632 18357zm-26703-18357c17-8374 5248-15515 12623-18355v36706c-7375-2837-12606-9974-12623-18350zm19665-31030c-17135 6-31020 13893-31023 31031 4 17136 13889 31020 31023 31025 17139-6 31026-13889 31028-31025-2-17138-13889-31025-31028-31031zm91238 101661h243c265 0 388-201 388-523 0-328-191-442-403-442h-229v965zm-692 1083v-101c252-37 299-28 299-185v-1520c0-213-23-287-291-275v-104h1052c361 0 693 172 693 544 0 306-202 531-485 620l337 470c157 211 335 413 453 484v66h-402c-191 0-360-404-737-946h-228v681c0 135 48 127 301 163v101h-993zm1022 581c920 0 1624-781 1624-1664 0-885-695-1675-1624-1675-922 0-1628 791-1628 1675 0 882 705 1664 1628 1664zm0-3723c1176 0 2054 903 2054 2059 0 1152-878 2047-2054 2047-1173 0-2055-896-2055-2047 0-1156 881-2059 2055-2059zm-484 14248c-1719 0-3436-79-5146-79-1717 0-3433 79-5153 79h-81v-754h354c707-17 1375-65 1383-1222v-10022c-8-950-673-1015-1383-1027h-354v-753h81c1038 0 2053 75 3084 75 990 0 1964-75 2966-75h80v754h-571c-754 20-1226-13-1241 969v10062c6 727 481 922 1091 1009 344 24 705 38 1081 38 479 0 974-23 1478-77 794-93 1478-552 1815-1018 299-416 472-951 588-1376l19-64h734l-17 102c-221 1115-488 2205-724 3315l-17 67h-65zm-18564-11500l2-1-2 1zm-1694 5423h3410l-1696-5222-1714 5222zm1737-5433l-22 6 22-6zm7539 11511c-879-35-1755-79-2686-79-950 0-1927 43-2922 79l-86 3v-757h297c454 0 1125-106 1127-480 4-222-171-754-389-1379l-741-2205h-4304l-602 1970c-196 667-429 1180-424 1496 0 479 731 598 1376 598h297v757l-86-3c-780-35-1578-79-2355-79-699 0-1400 43-2102 79l-85 3v-757h196c728-4 1337-421 1620-1209l3120-8951c251-723 601-1695 774-2470 613-212 1395-601 1774-837 51-19 104-44 184-44 52-5 152 9 213 116 58 152 116 330 180 487l3587 10198c233 683 467 1404 719 1984 229 518 584 721 1207 727h202v757l-88-3zm-15434 292l-807-28-9895-11028v7815c23 1695 282 2174 1746 2192h421v758h-85c-844 0-1681-79-2515-79-874 0-1770 79-2656 79h-80v-758h357c1285-4 1655-831 1669-2386v-8213c-2-1039-853-1668-1691-1668h-336v-753h80c747 0 1509 75 2244 75 578 0 1140-75 1801-46l8568 9646v-7172c-5-1551-1043-1738-1614-1750h-513v-753h89c917 0 1817 75 2724 75 798 0 1594-75 2404-75h84v754h-378c-802 22-1632 94-1649 2391v8875c0 680 15 1359 111 1956l17 95h-95zm-21449-941v-85c3709-4 4351-3251 4361-6094 0-2827-1523-6210-4692-6216-3346 4-4335 2971-4342 5568 2 3473 1586 6735 4674 6742v85m-7574-6143c9-4103 3181-7273 7280-7280v85-85c4187 4 7546 2607 7553 6810-4 4532-3260 7546-7453 7553-4171-7-7371-2844-7380-7084zm-497 6792c-942 0-2109-80-3081-80-954 0-2104 80-2867 80h-84v-754h356c704-12 1351-73 1356-1026v-10215c-4-952-651-1017-1356-1030h-356v-753h84c763 0 1934 75 2884 75 972 0 2142-75 3064-75h82v754h-354c-713 12-1354 78-1361 1030v10215c7 954 648 1015 1361 1027h355v754h-82zm-10156 0c-766 0-2131-79-3179-79-1165 0-2531 79-3296 79h-86v-754h456c1074-25 1506-39 1533-1551l-2-10330h-3109v-85 85c-1447 24-1414 268-1732 1710l-15 66h-753l12-98c83-548 177-1095 236-1658 80-544 117-1084 117-1644v-87h616l17 62c135 493 493 495 991 504 35 0 65 2 99 2h10064c537-10 932-18 965-526l6-93 92 17 552 88-15 85c-80 522-154 1050-213 1573-39 520-39 1048-39 1572v59l-57 22-691 253-3-115c-52-731-128-1792-1360-1792h-3114v10290c21 1470 604 1572 1531 1592h456v754h-82zm-16130-11500l4-1-4 1zm-1695 5422h3414l-1698-5225-1716 5225zm1739-5433l-22 6 22-6zm7540 11511c-876-38-1754-80-2684-80-956 0-1927 42-2924 80l-89 3v-761h300c452 0 1122-102 1123-476 4-222-170-757-386-1379l-741-2205h-4302l-606 1970c-197 665-431 1180-430 1498 6 476 736 591 1383 591h298v761l-88-3c-781-38-1576-80-2354-80-698 0-1403 42-2101 80l-90 3v-761h199c728-2 1333-414 1614-1206l3122-8951c255-723 607-1695 775-2472 611-208 1395-600 1771-836 54-19 107-46 187-46 48-3 153 11 216 115 56 158 116 333 176 491l3591 10198c230 683 461 1404 716 1981 226 520 585 724 1211 726h200v761l-89-3zm-16566-3927l7-6-7 6zm1131 4219l-804-27-9897-11030v7813c25 1696 281 2178 1752 2198h412v754h-84c-844 0-1681-80-2516-80-872 0-1773 80-2649 80h-89v-754h358c1287-6 1658-835 1669-2394v-8209c-2-1039-852-1668-1685-1668h-343v-754h89c743 0 1505 77 2242 77 573 0 1137-77 1792-51l8573 9652v-7173c-5-1550-1044-1741-1611-1750h-515v-754h85c921 0 1819 77 2731 77 794 0 1594-77 2397-77h87v755h-376c-805 20-1633 93-1653 2391v8875c0 680 17 1356 116 1956l10 95h-93zm-22503-7481c1931-17 2904-687 2922-2954-11-1703-1068-2759-2767-2766-527 0-775 48-1024 70v5650h869zm8133 7190c-654 0-1274-79-1915-79-594 0-1217 79-1897 46-1496-1962-2778-4057-4038-6283h-1152v4085c21 1467 611 1456 1513 1477h437v754h-88c-1114 0-2247-79-3353-79-931 0-1846 79-2826 79h-84v-754h437c702-6 1293-310 1297-967v-9908c-15-1382-692-1375-1298-1396h-437v-754h84c632 0 1835 77 3024 77 1164 0 2100-77 3138-77 2458 5 4720 684 4726 3515 0 1760-1162 2859-2667 3473l3276 4904c544 809 885 1012 1834 1133l70 10v744h-82zm-14877 0c-1251 0-3494-80-5245-80-1757 0-4074 80-5187 80h-83v-754h357c706-12 1346-73 1355-1026v-10215c-9-952-649-1016-1356-1030h-357v-753h83c1190 0 3219 75 4853 75 1640 0 3665-75 4991-75h87l-2 87c-15 294-21 641-21 1007 0 674 20 1411 59 1967l1 71-64 19-684 178-6-100c-115-1265-285-2185-2293-2202h-2627l-2 4936h2239c1123-10 1324-585 1456-1636l7-78h749l-3 89c-37 759-61 1519-61 2280 0 737 24 1478 61 2220l3 69-70 16-678 135-7-91c-133-1193-143-1844-1437-1859h-2255v4461c2 1183 1024 1178 2295 1183 2347-13 3289-128 3876-2317l20-78 81 15 626 160-18 83c-255 1030-487 2063-661 3095l-15 69h-69zm-14542 0c-767 0-2131-79-3180-79-1169 0-2532 79-3298 79h-81v-754h453c1076-25 1507-39 1531-1551v-10330h-3112v-85 85c-1443 25-1411 268-1730 1710l-15 66h-751l11-101c80-544 178-1091 236-1657 80-541 117-1081 117-1641v-87h619l15 62c132 493 493 495 990 504h10159c543-8 939-17 972-526l8-92 88 17 550 88-13 85c-77 522-154 1050-211 1573-38 520-38 1044-38 1572v59l-56 22-690 253-6-115c-52-731-130-1792-1361-1792h-3113v10290c19 1470 601 1572 1531 1592h457v754h-83zm-12520 292l-805-28-9894-11028v7815c23 1695 281 2176 1749 2196h418v754h-87c-843 0-1683-79-2515-79-873 0-1769 79-2653 79h-85v-754h360c1288-8 1656-835 1672-2390v-8212c-4-1037-855-1670-1691-1670h-341v-753h85c746 0 1508 75 2241 75 581 0 1144-75 1802-46l8570 9646v-7172c-10-1551-1045-1738-1613-1750h-516v-753h86c920 0 1819 75 2730 75 794 0 1593-75 2399-75h85v754h-376c-805 22-1631 93-1654 2391v8875c0 680 20 1359 115 1953l18 98h-101zm-14525-292c-944 0-2111-79-3081-79-955 0-2102 79-2869 79h-84v-754h356c709-17 1352-73 1360-1026v-10215c-8-955-650-1017-1360-1030h-356v-754h84c767 0 1936 77 2889 77 971 0 2138-77 3060-77h87v755h-359c-709 12-1355 75-1360 1030v10215c5 954 651 1010 1359 1027h359v754h-87zm148659-25558c0 1363 1290 3658 3691 3658 3835 0 5446-3764 5446-6955 0-3870-2936-7094-5731-7094-1330 0-2439 862-3406 1686v8705zm0-9747c1433-1217 3369-2580 5341-2580 4157 0 6664 3623 6664 7527 0 4694-3440 9390-8566 9390-2650 0-4047-860-4981-1254l-1074 822-750-392c317-2115 500-4194 500-6380v-15410c0-2330-540-2401-1901-2795v-574c1436-465 2939-1110 3691-1541 394-215 680-395 790-395 215 0 285 215 285 502v13080zm-7130 11826c0 646 392 681 1001 681 431 0 967-34 1435-34v754c-1543 143-4482 896-5163 1110l-180-108v-2902c-2147 1756-3798 3010-6345 3010-1935 0-3941-1254-3941-4263v-9177c0-932-143-1828-2147-2006v-682c1291-35 4152-249 4620-249 397 0 397 249 397 1039v9244c0 1076 0 4158 3116 4158 1217 0 2830-932 4334-2183v-9644c0-715-1719-1107-3006-1466v-646c3221-215 5231-501 5589-501 289 0 289 249 289 646v13221zm-23010 1041h678c1006 0 1724 0 1724-1186v-19959c0-2330-539-2401-1900-2795v-574c1433-465 2937-1110 3690-1543 393-213 681-395 787-395 217 0 290 217 290 504v24761c0 1186 788 1186 1793 1186h606v931c-1215 0-2471-71-3760-71s-2580 35-3907 71v-931zm-1292-17599h-894c-682-4190-3658-5876-7669-5876-4124 0-10110 2759-10110 11360 0 7242 5165 12437 10681 12437 3546 0 6488-2435 7205-6200l824 214-824 5233c-1506 934-5556 1901-7922 1901-8384 0-13687-5411-13687-13475 0-7348 6556-12618 13580-12618 2902 0 5699 935 8457 1903l359 5122zm-42645 13548c467 2364 1899 4372 4517 4372 2112 0 2899-1291 2899-2543 0-4230-7809-2869-7809-8636 0-2008 1614-4590 5555-4590 1145 0 2685 324 4083 1041l252 3652h-823c-358-2255-1613-3544-3907-3544-1435 0-2794 824-2794 2364 0 4195 8314 2902 8314 8529 0 2364-1899 4875-6165 4875-1434 0-3119-502-4371-1217l-396-4122 646-181zm-13796 4051h967c1000 0 1718 0 1718-1186v-10067c0-1111-1326-1327-1863-1613v-537c2616-1111 4050-2044 4378-2044 210 0 318 108 318 468v3225h76c893-1397 2400-3693 4585-3693 897 0 2043 608 2043 1899 0 969-680 1832-1683 1832-1115 0-1115-863-2367-863-610 0-2616 825-2616 2976v8418c0 1186 715 1186 1720 1186h2005v931c-1971-37-3471-71-5014-71-1469 0-2975 35-4265 71v-931zm-4909-10107c896 0 1000-467 1000-895 0-1828-1110-3297-3118-3297-2184 0-3689 1610-4119 4193h6237zm-6343 1148c-75 324-76 859 0 2080 211 3403 2401 6198 5264 6198 1974 0 3517-1076 4840-2400l500 501c-1649 2186-3691 4050-6627 4050-5700 0-6846-5520-6846-7812 0-7027 4729-9105 7236-9105 2906 0 6026 1828 6057 5627 0 217 0 430-31 647l-326 215h-10067zm-18351-1722c0-1324-396-1682-2077-2363v-681c1539-502 3006-969 4729-1723 107 0 213 74 213 357v2330c2044-1467 3802-2688 6205-2688 3044 0 4118 2222 4118 5018v9243c0 1186 789 1186 1793 1186h646v931c-1259 0-2511-71-3798-71-1293 0-2582 35-3873 71v-931h646c1005 0 1717 0 1717-1186v-9279c0-2044-1249-3046-3294-3046-1146 0-2974 931-4160 1721v10604c0 1186 792 1186 1796 1186h644v931c-1253 0-2509-71-3800-71-1288 0-2580 35-3869 71v-931h646c1004 0 1720 0 1720-1186v-9496zm-7238-10283c-934 0-1757-861-1757-1793 0-898 861-1724 1756-1724 929 0 1756 756 1756 1724 0 969-790 1793-1756 1793zm-3835 20965h681c1002 0 1719 0 1719-1186v-9710c0-1575-537-1793-1863-2507v-574c1684-504 3693-1182 3834-1290 253-143 466-181 646-181 177 0 251 216 251 505v13757c0 1186 789 1186 1793 1186h607v931c-1219 0-2475-71-3761-71-1291 0-2582 35-3907 71v-931zm-22724-20107c0-3224-1682-3011-3293-3045v-932c1396 69 2829 69 4228 69 1505 0 3547-69 6201-69 9280 0 14333 6196 14333 12543 0 3549-2078 12472-14765 12472-1826 0-3513-71-5196-71-1611 0-3190 35-4801 71v-931c2148-217 3190-287 3293-2725v-17382z" fill="#0b56a6"/></svg>