<svg xmlns="http://www.w3.org/2000/svg" viewBox="0 0 333331 113901" shape-rendering="geometricPrecision" text-rendering="geometricPrecision" image-rendering="optimizeQuality" fill-rule="evenodd" clip-rule="evenodd"><path d="M12887 0h307558c7088 0 12887 5829 12887 12887v88127c0 7057-5829 12887-12887 12887H12887C5830 113901 0 108102 0 101014V12887C0 5799 5799 0 12887 0zm24684 24657h30060v12904H55365v12333h10883v12251H55365v27115H37571V24658zm74891 37868c0 6493-158 11080-489 13776-317 2709-1324 5172-3024 7405-1699 2232-4002 3947-6896 5145s-6263 1797-10106 1797c-3657 0-6925-572-9833-1702s-5255-2818-7011-5078c-1770-2259-2822-4723-3167-7378-331-2668-504-7323-504-13966V51471c0-6493 158-11080 489-13776 317-2709 1325-5172 3024-7405s4002-3948 6896-5146 6263-1797 10107-1797c3657 0 6925 572 9833 1702s5255 2818 7011 5078c1771 2259 2822 4723 3167 7378 331 2668 504 7323 504 13966v11053zM94668 41304c0-2994-173-4914-518-5758-346-830-1051-1252-2117-1252-907 0-1598 341-2087 1021-475 667-720 2668-720 5989v30151c0 3743 158 6057 475 6929 317 885 1051 1320 2203 1320 1181 0 1943-504 2275-1511 331-1007 489-3417 489-7215V41304zm42268-16647v51698h10711v12904h-28505V24657h17794zm32853 0v51698h10711v12904h-28505V24657h17794zm54260 37868c0 6493-158 11080-489 13776-317 2709-1324 5172-3023 7405-1699 2232-4002 3947-6896 5145s-6263 1797-10106 1797c-3657 0-6925-572-9833-1702s-5255-2818-7011-5078c-1770-2259-2821-4723-3167-7378-331-2668-504-7323-504-13966V51471c0-6493 158-11080 489-13776 317-2709 1324-5172 3024-7405 1699-2233 4002-3948 6896-5146s6263-1797 10107-1797c3657 0 6924 572 9833 1702 2908 1130 5255 2818 7011 5078 1771 2259 2822 4723 3167 7378 331 2668 504 7323 504 13966v11053zm-17794-21221c0-2994-173-4914-518-5758-346-830-1051-1252-2117-1252-907 0-1598 341-2087 1021-475 667-720 2668-720 5989v30151c0 3743 158 6057 475 6929 317 885 1051 1320 2203 1320 1180 0 1943-504 2275-1511 331-1007 489-3417 489-7215V41304zm91331-16647l-7918 64602h-22142c-1987-9923-3786-21235-5398-33921-735 5458-2390 16770-4967 33921h-22012l-7961-64602h17276l1871 22568 1800 21807c676-11284 2318-26081 4924-44375h18399c216 1919 849 9025 1886 21344l2001 24583c1051-15640 2706-30954 4967-45927h17275z"/></svg>