<svg xmlns="http://www.w3.org/2000/svg" width="64" height="64" shape-rendering="geometricPrecision" text-rendering="geometricPrecision" image-rendering="optimizeQuality" fill-rule="evenodd" clip-rule="evenodd" viewBox="0 0 640 640"><path d="M219.274 517.046c-37.678-9.402-58.642-39.367-58.725-83.8 0-14.197 1.004-21 4.57-30.166 8.682-22.406 31.714-39.272 61.998-45.52 15.07-3.083 19.712-6.39 19.712-14.114 0-2.41 1.808-9.603 4.016-15.97 9.957-28.972 28.406-53.078 48.072-62.917 20.61-10.335 31.04-12.638 55.961-12.52 35.445.189 53.091 7.878 77.8 33.827l13.607 14.292 12.153-4.205c58.926-20.398 117.686 14.315 122.446 72.355l1.288 15.874 11.598 4.158c33.154 11.882 48.722 36.803 45.91 73.477-1.842 23.965-13.05 43.11-30.791 52.595l-8.363 4.477-185.518.366c-142.56.283-187.88-.248-195.723-2.209h-.011zM64.512 490.53c-22.607-5.693-46.571-26.811-57.804-50.918-6.366-13.69-6.72-15.732-6.72-39.934 0-23.043.555-26.716 5.586-38.161 10.678-24.107 31.205-41.505 56.871-48.39 5.445-1.43 10.524-3.757 11.327-5.127.803-1.358 1.724-8.835 1.996-16.595 1.795-48.248 31.76-90.757 73.572-104.41 22.595-7.359 52.229-8.068 76.796 2.314 7.795 3.284 6.921 4.004 23.398-18.838 9.768-13.512 28.205-27.804 44.327-36.355 17.41-9.237 35.493-13.489 57.119-13.441 60.497.165 112.608 40.122 131.884 101.15 6.154 19.489 5.835 24.97-1.406 25.135-3.165.07-12.248 1.913-20.197 4.075l-14.445 3.968-13.146-13.925c-37.122-39.201-97.642-47.682-149.128-20.882-20.563 10.724-37.087 26.079-49.56 46.122-8.881 14.292-20.244 40.961-20.244 47.564 0 4.689-3.602 7.051-18.956 12.366-47.564 16.477-75.32 54.568-75.273 103.29 0 17.716 4.323 39.449 10.323 51.838 2.28 4.69 3.52 9.119 2.8 9.886-1.843 1.973-61.005 1.288-69.202-.756l.082.024z"/></svg>